<?xml version="1.0"?>
<svg xmlns="http://www.w3.org/2000/svg" xmlns:xlink="http://www.w3.org/1999/xlink" xmlns:svgjs="http://svgjs.com/svgjs" version="1.1" width="512" height="512" x="0" y="0" viewBox="0 0 24 24" style="enable-background:new 0 0 512 512" xml:space="preserve"><g><path xmlns="http://www.w3.org/2000/svg" d="M12,24A12,12,0,1,1,24,12,12.013,12.013,0,0,1,12,24ZM12,2A10,10,0,1,0,22,12,10.011,10.011,0,0,0,12,2Zm5.666,13.746-1.33-1.494A7.508,7.508,0,0,1,12,16a7.509,7.509,0,0,1-4.334-1.746L6.334,15.746A9.454,9.454,0,0,0,12,18,9.454,9.454,0,0,0,17.666,15.746ZM14,10v1h4V10a2,2,0,0,0-4,0ZM10,9H6v2h4Z" fill="#333333" data-original="#000000"/></g></svg>
